HIERARCHY
ROOT Hips
{
	OFFSET 0.000000 83.214638 0.000000
	CHANNELS 6 Xposition Yposition Zposition Xrotation Yrotation Zrotation
	JOINT Pelvis
	{
		OFFSET 0.000000 0.000000 0.000000
		CHANNELS 3 Xrotation Yrotation Zrotation
		JOINT LeftUpLeg
		{
			OFFSET 8.479700 -4.795502 -0.379100
			CHANNELS 3 Xrotation Yrotation Zrotation
			JOINT LeftLeg
			{
				OFFSET 0.024144 -32.555107 0.112900
				CHANNELS 3 Xrotation Yrotation Zrotation
				JOINT LeftFoot
				{
					OFFSET -0.024144 -32.638630 -3.012600
					CHANNELS 3 Xrotation Yrotation Zrotation
					JOINT LeftToeBase
					{
						OFFSET 0.970200 -13.225400 11.864200
						CHANNELS 3 Xrotation Yrotation Zrotation
						End Site
						{
							OFFSET 0.000000 12.319262 0.000000
						}
					}
					JOINT LFootTongue
					{
						OFFSET 1.142400 -1.059800 6.665200
						CHANNELS 3 Xrotation Yrotation Zrotation
						End Site
						{
							OFFSET 0.000000 12.319262 0.000000
						}
					}
				}
				JOINT LeftPantLeg
				{
					OFFSET 0.918482 -16.533964 -2.284700
					CHANNELS 3 Xrotation Yrotation Zrotation
					End Site
					{
						OFFSET 0.350399 24.744368 0.000000
					}
				}
			}
		}
		JOINT RightUpLeg
		{
			OFFSET -8.479700 -4.795502 -0.379100
			CHANNELS 3 Xrotation Yrotation Zrotation
			JOINT RightLeg
			{
				OFFSET -0.023144 -32.555092 0.112900
				CHANNELS 3 Xrotation Yrotation Zrotation
				JOINT RightFoot
				{
					OFFSET 0.023144 -32.638641 -3.012700
					CHANNELS 3 Xrotation Yrotation Zrotation
					JOINT RightToeBase
					{
						OFFSET -0.970200 -13.225400 11.864200
						CHANNELS 3 Xrotation Yrotation Zrotation
						End Site
						{
							OFFSET 0.000000 12.319244 0.000000
						}
					}
					JOINT RFootTongue
					{
						OFFSET -1.142200 -1.059800 6.665200
						CHANNELS 3 Xrotation Yrotation Zrotation
						End Site
						{
							OFFSET 0.000000 12.319243 0.000000
						}
					}
				}
				JOINT RightPantLeg
				{
					OFFSET -0.919482 -16.533978 -2.284800
					CHANNELS 3 Xrotation Yrotation Zrotation
					End Site
					{
						OFFSET -0.350400 24.744419 0.000000
					}
				}
			}
		}
	}
	JOINT Spine
	{
		OFFSET 0.000000 7.722000 1.166200
		CHANNELS 3 Xrotation Yrotation Zrotation
		JOINT Spine1
		{
			OFFSET 0.000000 12.024101 0.248800
			CHANNELS 3 Xrotation Yrotation Zrotation
			JOINT Spine2
			{
				OFFSET 0.000000 11.502998 -0.491200
				CHANNELS 3 Xrotation Yrotation Zrotation
				JOINT Neck
				{
					OFFSET 0.000000 18.430702 -3.123100
					CHANNELS 3 Xrotation Yrotation Zrotation
					JOINT Head
					{
						OFFSET 0.000000 9.051102 1.034000
						CHANNELS 3 Xrotation Yrotation Zrotation
						JOINT HairB
						{
							OFFSET 0.208400 24.786102 24.822300
							CHANNELS 3 Xrotation Yrotation Zrotation
							End Site
							{
								OFFSET 0.000000 32.263779 0.000000
							}
						}
						JOINT HairA
						{
							OFFSET -7.081100 24.428299 23.196600
							CHANNELS 3 Xrotation Yrotation Zrotation
							End Site
							{
								OFFSET 0.000000 32.263779 0.000000
							}
						}
						JOINT Hat
						{
							OFFSET 16.728800 15.048294 -15.439601
							CHANNELS 3 Xrotation Yrotation Zrotation
							End Site
							{
								OFFSET 0.000000 32.263779 0.000000
							}
						}
					}
				}
				JOINT LeftShoulder
				{
					OFFSET 6.197800 13.665199 -4.064700
					CHANNELS 3 Xrotation Yrotation Zrotation
					JOINT LeftArm
					{
						OFFSET 7.778100 -0.187103 -1.709300
						CHANNELS 3 Xrotation Yrotation Zrotation
						JOINT LeftForeArm
						{
							OFFSET 22.049376 0.000000 0.000000
							CHANNELS 3 Xrotation Yrotation Zrotation
							JOINT LeftHand
							{
								OFFSET 23.009392 0.000000 0.000000
								CHANNELS 3 Xrotation Yrotation Zrotation
								JOINT LeftHandThumb1
								{
									OFFSET 3.507191 -2.063065 3.133727
									CHANNELS 3 Xrotation Yrotation Zrotation
									JOINT LeftHandThumb2
									{
										OFFSET 3.101337 -1.790558 1.790558
										CHANNELS 3 Xrotation Yrotation Zrotation
										JOINT LeftHandThumb3
										{
											OFFSET 3.058640 -1.765907 1.765906
											CHANNELS 3 Xrotation Yrotation Zrotation
											End Site
											{
												OFFSET -0.415260 3.926476 -0.049563
											}
										}
									}
								}
								JOINT LeftHandIndex1
								{
									OFFSET 11.334419 -0.901459 3.706815
									CHANNELS 3 Xrotation Yrotation Zrotation
									JOINT LeftHandIndex2
									{
										OFFSET 3.283112 0.000000 0.000000
										CHANNELS 3 Xrotation Yrotation Zrotation
										JOINT LeftHandIndex3
										{
											OFFSET 3.323853 0.000000 0.000000
											CHANNELS 3 Xrotation Yrotation Zrotation
											End Site
											{
												OFFSET -1.135597 3.097809 0.402452
											}
										}
									}
								}
								JOINT LeftHandMiddle1
								{
									OFFSET 11.335861 0.000000 0.000000
									CHANNELS 3 Xrotation Yrotation Zrotation
									JOINT LeftHandMiddle2
									{
										OFFSET 3.410492 0.000000 0.000000
										CHANNELS 3 Xrotation Yrotation Zrotation
										JOINT LeftHandMiddle3
										{
											OFFSET 3.312172 0.000000 0.000000
											CHANNELS 3 Xrotation Yrotation Zrotation
											End Site
											{
												OFFSET -1.150200 3.080154 0.400270
											}
										}
									}
								}
								JOINT LeftHandRing1
								{
									OFFSET 11.514786 -0.013176 -3.003090
									CHANNELS 3 Xrotation Yrotation Zrotation
									JOINT LeftHandRing2
									{
										OFFSET 3.053307 0.000000 0.000000
										CHANNELS 3 Xrotation Yrotation Zrotation
										JOINT LeftHandRing3
										{
											OFFSET 3.295807 0.000000 0.000000
											CHANNELS 3 Xrotation Yrotation Zrotation
											End Site
											{
												OFFSET -1.281006 3.013344 0.375733
											}
										}
									}
								}
								JOINT LeftHandPinky1
								{
									OFFSET 10.518692 -0.960396 -5.730441
									CHANNELS 3 Xrotation Yrotation Zrotation
									JOINT LeftHandPinky2
									{
										OFFSET 2.861649 0.000000 0.000000
										CHANNELS 3 Xrotation Yrotation Zrotation
										JOINT LeftHandPinky3
										{
											OFFSET 2.863380 0.000000 0.000000
											CHANNELS 3 Xrotation Yrotation Zrotation
											End Site
											{
												OFFSET -0.843597 2.711159 0.369971
											}
										}
									}
								}
							}
							JOINT LSleeve
							{
								OFFSET 6.676277 -0.344902 -1.011730
								CHANNELS 3 Xrotation Yrotation Zrotation
								End Site
								{
									OFFSET 0.000000 14.885353 0.000000
								}
							}
						}
					}
				}
				JOINT RightShoulder
				{
					OFFSET -6.197800 13.665199 -4.064700
					CHANNELS 3 Xrotation Yrotation Zrotation
					JOINT RightArm
					{
						OFFSET -7.778100 -0.187103 -1.709300
						CHANNELS 3 Xrotation Yrotation Zrotation
						JOINT RightForeArm
						{
							OFFSET -22.049376 0.000000 0.000000
							CHANNELS 3 Xrotation Yrotation Zrotation
							JOINT RightHand
							{
								OFFSET -23.009392 0.000000 0.000000
								CHANNELS 3 Xrotation Yrotation Zrotation
								JOINT RightHandThumb1
								{
									OFFSET -3.507191 -2.063065 3.133727
									CHANNELS 3 Xrotation Yrotation Zrotation
									JOINT RightHandThumb2
									{
										OFFSET -3.101337 -1.790558 1.790558
										CHANNELS 3 Xrotation Yrotation Zrotation
										JOINT RightHandThumb3
										{
											OFFSET -3.058640 -1.765907 1.765906
											CHANNELS 3 Xrotation Yrotation Zrotation
											End Site
											{
												OFFSET 0.415260 3.926476 -0.049563
											}
										}
									}
								}
								JOINT RightHandIndex1
								{
									OFFSET -11.334419 -0.901459 3.706815
									CHANNELS 3 Xrotation Yrotation Zrotation
									JOINT RightHandIndex2
									{
										OFFSET -3.283112 0.000000 0.000000
										CHANNELS 3 Xrotation Yrotation Zrotation
										JOINT RightHandIndex3
										{
											OFFSET -3.323853 0.000000 0.000000
											CHANNELS 3 Xrotation Yrotation Zrotation
											End Site
											{
												OFFSET 1.135597 3.097809 0.402452
											}
										}
									}
								}
								JOINT RightHandMiddle1
								{
									OFFSET -11.335861 0.000000 0.000000
									CHANNELS 3 Xrotation Yrotation Zrotation
									JOINT RightHandMiddle2
									{
										OFFSET -3.410492 0.000000 0.000000
										CHANNELS 3 Xrotation Yrotation Zrotation
										JOINT RightHandMiddle3
										{
											OFFSET -3.312172 0.000000 0.000000
											CHANNELS 3 Xrotation Yrotation Zrotation
											End Site
											{
												OFFSET 1.150200 3.080154 0.400270
											}
										}
									}
								}
								JOINT RightHandRing1
								{
									OFFSET -11.514786 -0.013176 -3.003090
									CHANNELS 3 Xrotation Yrotation Zrotation
									JOINT RightHandRing2
									{
										OFFSET -3.053307 0.000000 0.000000
										CHANNELS 3 Xrotation Yrotation Zrotation
										JOINT RightHandRing3
										{
											OFFSET -3.295807 0.000000 0.000000
											CHANNELS 3 Xrotation Yrotation Zrotation
											End Site
											{
												OFFSET 1.281006 3.013344 0.375733
											}
										}
									}
								}
								JOINT RightHandPinky1
								{
									OFFSET -10.518692 -0.960396 -5.730441
									CHANNELS 3 Xrotation Yrotation Zrotation
									JOINT RightHandPinky2
									{
										OFFSET -2.861649 0.000000 0.000000
										CHANNELS 3 Xrotation Yrotation Zrotation
										JOINT RightHandPinky3
										{
											OFFSET -2.863380 0.000000 0.000000
											CHANNELS 3 Xrotation Yrotation Zrotation
											End Site
											{
												OFFSET 0.843597 2.711159 0.369971
											}
										}
									}
								}
							}
							JOINT RSleeve
							{
								OFFSET -6.676277 -0.344902 -1.011730
								CHANNELS 3 Xrotation Yrotation Zrotation
								End Site
								{
									OFFSET 0.000000 14.885353 0.000000
								}
							}
						}
					}
				}
				JOINT Backpack
				{
					OFFSET 0.000000 -2.471497 36.677502
					CHANNELS 3 Xrotation Yrotation Zrotation
					End Site
					{
						OFFSET 0.000000 20.427315 0.000000
					}
				}
				JOINT Hood
				{
					OFFSET 0.000000 18.754097 -10.431000
					CHANNELS 3 Xrotation Yrotation Zrotation
					JOINT Hood1
					{
						OFFSET 0.000000 -5.011002 -7.685901
						CHANNELS 3 Xrotation Yrotation Zrotation
						End Site
						{
							OFFSET 0.000000 9.175140 0.000000
						}
					}
				}
				JOINT LHoodieString
				{
					OFFSET 5.250500 16.397697 3.089900
					CHANNELS 3 Xrotation Yrotation Zrotation
					JOINT LHoodieString1
					{
						OFFSET 0.257700 -6.364304 3.694600
						CHANNELS 3 Xrotation Yrotation Zrotation
						JOINT LHoodieString2
						{
							OFFSET 0.000000 -9.643799 2.679100
							CHANNELS 3 Xrotation Yrotation Zrotation
							End Site
							{
								OFFSET 0.000000 10.009018 0.000000
							}
						}
					}
				}
				JOINT RHoodieString
				{
					OFFSET -5.250500 16.397697 3.089900
					CHANNELS 3 Xrotation Yrotation Zrotation
					JOINT RHoodieString1
					{
						OFFSET -0.257700 -6.364304 3.694600
						CHANNELS 3 Xrotation Yrotation Zrotation
						JOINT RHoodieString2
						{
							OFFSET 0.000000 -9.643799 2.679100
							CHANNELS 3 Xrotation Yrotation Zrotation
							End Site
							{
								OFFSET 0.000000 10.009018 0.000000
							}
						}
					}
				}
			}
			JOINT LBackpack_Strap
			{
				OFFSET 15.223200 -7.719803 -6.610900
				CHANNELS 3 Xrotation Yrotation Zrotation
				End Site
				{
					OFFSET 0.000000 16.040596 0.000000
				}
			}
			JOINT RBackpack_Strap
			{
				OFFSET -15.223000 -7.719803 -6.610900
				CHANNELS 3 Xrotation Yrotation Zrotation
				End Site
				{
					OFFSET 0.000000 16.040596 0.000000
				}
			}
		}
	}
	JOINT BoyFacialAnim_Joint
	{
		OFFSET 1.000000 -82.208099 -1.550900
		CHANNELS 3 Xrotation Yrotation Zrotation
		End Site
		{
			OFFSET 0.000000 30.012791 0.000000
		}
	}
}
MOTION
Frames: 4
Frame Time: 0.033333
2.346072 78.729706 79.329132 -5.596608 -28.582175 3.640167 0.000000 -0.000000 -0.000000 7.345663 18.863215 -11.810862 28.244601 -0.418507 -3.794306 -17.296698 -0.575340 11.973910 0.000001 0.000000 0.000000 0.000001 0.000000 0.000000 -0.000002 0.000000 -0.000000 -32.959051 2.755137 7.618904 27.206667 -9.320340 -7.507519 -19.477541 -6.380008 11.355016 -0.000001 -0.000001 -0.000001 -0.000001 -0.000001 -0.000001 0.000001 -0.000003 -0.000000 8.634615 -9.187420 2.459920 1.420690 -3.289472 0.420079 2.050780 -2.904399 1.062780 9.090392 14.803993 -5.373767 22.430705 11.643369 4.634913 -0.000000 0.000000 0.000001 -0.000000 0.000000 0.000001 -0.000000 0.000000 0.000001 0.298955 -11.476354 -12.357475 -49.496021 -13.561686 -37.173424 0.000024 -65.869040 0.000016 -133.401162 -3.993448 25.850832 4.703188 9.563384 3.109665 19.473199 -1.474930 7.636926 0.000001 0.000002 0.000001 -0.212811 3.933739 -36.747131 2.942198 5.078951 -60.145416 -0.000000 -0.000000 -0.000002 0.405912 5.507041 -52.453165 3.387128 5.308637 -65.057443 0.000000 0.000001 0.000000 -0.074375 5.736792 -61.061399 4.055038 5.569506 -72.094921 0.000001 0.000002 -0.000002 -6.565564 4.545196 -72.425407 3.299619 5.267215 -64.107623 -0.000002 0.000002 -0.000005 -0.000003 0.000000 0.000004 0.522592 4.791152 10.826126 -38.491657 64.065617 64.010224 0.001213 96.595356 -0.001168 -49.255971 -26.831070 -26.331602 8.377128 -4.904143 11.022013 21.620233 -18.183869 -18.379201 0.000001 -0.000000 -0.000001 -0.778308 1.882284 10.429047 0.380120 -1.844524 23.286282 -0.000000 0.000001 0.000002 3.408274 -7.182201 51.657107 6.296813 -4.359585 110.634653 -0.000000 0.000001 -0.000002 -3.352548 -2.599107 57.017572 5.440858 -4.590907 99.698161 -0.000001 -0.000001 -0.000001 -4.001880 -3.301690 64.596343 4.058857 -4.618670 82.610537 -0.000001 -0.000001 -0.000000 -0.000002 -0.000001 0.000003 -0.000000 -0.000000 -0.000000 -0.000000 -0.000000 -0.000000 -0.000000 -0.000000 -0.000000 -0.000000 -0.000000 -0.000000 -0.000000 -0.000000 -0.000000 -0.000000 0.000000 0.000001 -0.000000 -0.000000 -0.000000 -0.000000 -0.000000 -0.000000 -0.000000 0.000000 0.000001 0.000001 0.000003 -0.000001 0.000001 0.000003 -0.000001 0.000000 -0.000000 -0.000000 
2.059541 78.400612 82.268204 -5.436826 -26.915233 2.702814 -0.000000 -0.000001 -0.000000 5.493841 21.048485 -9.190140 34.213295 -2.893660 -3.185768 -14.098836 -0.570036 9.838753 -0.000003 0.000000 -0.000000 -0.000003 0.000000 -0.000000 0.000002 -0.000000 -0.000001 -32.121516 0.735828 9.099631 24.712080 -9.887745 -8.869583 -11.887123 -3.501508 3.100129 0.000001 0.000001 0.000000 0.000001 0.000001 0.000000 0.000001 0.000004 0.000001 8.323642 -10.162625 3.579306 1.365540 -3.486366 0.535147 2.116443 -4.107428 1.454728 7.282288 15.283677 -4.559247 24.517591 12.356100 4.330730 -0.000001 0.000000 0.000002 -0.000001 0.000000 0.000002 -0.000001 0.000000 0.000002 0.283405 -11.773629 -12.465757 -47.174016 -9.925640 -36.318752 0.000078 -74.159831 0.000086 -132.577810 -7.484339 28.882295 2.571484 3.236750 2.887806 19.473195 -1.474923 7.636924 0.000001 -0.000002 0.000001 0.508375 5.010690 -39.735360 2.794417 4.991548 -58.461536 -0.000004 0.000001 -0.000002 1.265937 6.191386 -53.292117 3.269217 5.252403 -63.775935 -0.000003 -0.000001 -0.000000 -0.004470 5.834268 -61.895434 4.166330 5.604078 -73.238138 0.000001 0.000001 0.000002 -4.535535 5.154004 -72.185312 3.235766 5.235901 -63.410240 0.000003 0.000003 -0.000003 -0.000000 -0.000001 0.000002 0.525177 4.607806 10.622121 -33.783280 63.321072 59.984845 0.000068 101.531609 -0.000069 -50.206139 -28.064885 -27.712470 8.377127 -4.904143 11.022011 21.620226 -18.183866 -18.379204 0.000003 -0.000000 0.000001 -1.742644 -0.579821 31.042530 2.631253 -4.194321 64.189223 -0.000001 -0.000000 -0.000000 0.962431 -5.346662 55.036503 6.296813 -4.359586 110.634660 0.000001 0.000000 -0.000000 -5.113130 -2.052785 60.439449 5.440856 -4.590906 99.698154 0.000001 0.000000 0.000004 -6.678205 -2.261507 65.829691 3.636814 -4.544273 77.330555 -0.000002 -0.000002 -0.000000 -0.000000 0.000001 0.000002 -0.000001 -0.000001 0.000001 -0.000001 -0.000001 0.000001 -0.000001 -0.000001 0.000001 -0.000001 -0.000001 0.000001 -0.000001 -0.000001 -0.000000 0.000000 -0.000000 -0.000000 -0.000001 -0.000001 0.000001 -0.000001 -0.000001 -0.000000 0.000000 -0.000000 -0.000000 -0.000000 -0.000003 0.000001 -0.000000 -0.000003 0.000001 -0.000000 -0.000001 -0.000000 
1.771786 77.957848 85.408752 -5.359661 -25.429315 1.583476 -0.000001 0.000000 -0.000000 3.675204 23.382505 -6.336146 39.817892 -5.762838 -2.272157 -9.647294 -0.401102 8.534142 -0.000002 -0.000000 -0.000000 -0.000002 -0.000000 -0.000000 0.000002 0.000000 -0.000000 -31.155324 -0.739621 9.648795 22.936668 -9.780523 -9.145131 -3.163925 -2.118583 -1.378521 0.000001 -0.000002 -0.000000 0.000001 -0.000002 -0.000000 -0.000001 0.000004 0.000000 7.897895 -10.908160 4.898338 1.282437 -3.633393 0.693984 2.161333 -5.043437 1.728465 4.678828 15.347427 -3.082362 24.986435 12.305220 3.600900 -0.000001 0.000001 -0.000001 -0.000001 0.000001 -0.000001 -0.000001 0.000001 -0.000001 0.253665 -12.052134 -12.709083 -45.181326 -5.711368 -35.272545 -0.001128 -86.254696 -0.001131 -129.113019 -12.500704 34.487244 1.136357 -0.700934 2.634994 19.473195 -1.474928 7.636927 0.000001 0.000002 0.000001 1.014337 5.653746 -41.626076 2.702728 4.934324 -57.401764 -0.000004 -0.000000 -0.000002 1.817899 6.609545 -53.826074 3.195622 5.215639 -62.969433 0.000003 0.000001 0.000000 0.040701 5.895139 -62.420539 4.236736 5.624707 -73.957828 0.000002 -0.000001 0.000001 -3.259003 5.545254 -72.046010 3.195794 5.215765 -62.971332 -0.000002 0.000003 -0.000003 -0.000001 -0.000002 0.000003 0.528379 4.293637 10.406703 -26.497336 61.259536 53.689467 0.000092 109.039476 -0.000095 -51.259026 -27.884783 -28.441388 8.377128 -4.904142 11.022012 21.620230 -18.183867 -18.379202 0.000002 -0.000000 0.000001 -1.868449 -0.239887 30.311311 2.529357 -4.143605 62.787579 -0.000000 -0.000001 0.000002 -1.843458 -3.748007 58.658313 6.296811 -4.359589 110.634653 -0.000000 0.000000 0.000001 -7.064964 -1.705388 64.043358 5.440858 -4.590906 99.698154 -0.000001 0.000001 0.000004 -9.551340 -1.284376 67.168388 3.200805 -4.424107 71.758336 -0.000002 0.000000 0.000000 0.000000 0.000001 0.000002 0.000000 -0.000002 -0.000000 0.000000 -0.000002 -0.000000 0.000000 -0.000002 -0.000000 0.000000 -0.000002 -0.000000 0.000000 -0.000002 -0.000000 0.000000 -0.000002 0.000001 0.000000 -0.000002 -0.000000 0.000000 -0.000002 -0.000000 0.000000 -0.000002 0.000001 0.000001 -0.000003 0.000001 0.000001 -0.000003 0.000001 -0.000001 0.000000 -0.000000 
1.491231 77.396240 88.579170 -5.670554 -25.589061 0.638430 0.000000 0.000001 -0.000000 2.537600 25.861724 -4.411096 44.386415 -7.795881 -1.119900 -3.878754 0.000229 7.601516 0.000004 0.000000 -0.000000 0.000004 0.000000 -0.000000 -0.000002 0.000000 -0.000000 -30.893577 -1.466808 9.762720 25.714183 -8.282807 -8.773151 0.620097 -1.961584 -3.658799 -0.000001 -0.000000 -0.000000 -0.000001 -0.000000 -0.000000 0.000000 0.000000 0.000001 7.783591 -10.662459 5.865808 1.246149 -3.581321 0.816890 2.140940 -5.026097 1.685913 2.995990 14.968831 -1.862176 23.988989 11.734798 2.907965 -0.000000 0.000001 0.000003 -0.000000 0.000001 0.000003 -0.000000 0.000001 0.000003 0.235717 -11.993239 -12.885057 -44.749402 -4.703205 -35.212531 0.044728 -89.842232 0.043409 -127.843123 -14.009971 35.725332 0.893324 -1.342402 2.584446 19.473192 -1.474927 7.636928 -0.000000 -0.000001 0.000000 1.100963 5.756388 -41.936579 2.687813 4.924776 -57.228181 0.000000 -0.000001 -0.000002 1.909088 6.677127 -53.913979 3.183620 5.209542 -62.837303 0.000001 -0.000001 0.000004 0.048184 5.905086 -62.506585 4.248308 5.627999 -74.075751 0.000002 0.000000 -0.000004 -3.049948 5.609966 -72.024051 3.189268 5.212436 -62.899424 0.000002 0.000001 -0.000002 -0.000001 0.000001 -0.000002 0.527867 4.230617 10.539968 -23.760613 60.325050 51.349799 -0.000117 111.368645 0.000121 -50.567825 -27.676739 -27.815886 8.377128 -4.904142 11.022013 21.620228 -18.183869 -18.379202 -0.000000 -0.000001 -0.000001 -1.797116 -0.022398 28.416474 2.302189 -4.019002 59.596665 -0.000000 0.000001 0.000002 -4.040074 -2.806419 61.352304 6.296812 -4.359586 110.634660 0.000001 0.000001 -0.000000 -8.551078 -1.604795 66.685712 5.440858 -4.590905 99.698154 -0.000000 0.000002 0.000004 -11.697290 -0.645717 68.173860 2.888348 -4.308866 67.655845 -0.000001 -0.000001 -0.000001 0.000003 -0.000002 -0.000000 -0.000000 -0.000001 0.000000 -0.000000 -0.000001 0.000000 -0.000000 -0.000001 0.000000 -0.000000 -0.000001 0.000000 -0.000000 -0.000001 0.000000 -0.000000 0.000001 0.000000 -0.000000 -0.000001 0.000000 -0.000000 -0.000001 0.000000 -0.000000 0.000001 0.000000 0.000001 -0.000003 0.000000 0.000001 -0.000003 0.000000 0.000000 0.000001 -0.000000 
